<svg width="60" height="60" viewBox="0 0 60 60" fill="none" xmlns="http://www.w3.org/2000/svg">
<path d="M53 12C53 11.9 53 11.8 52.9 11.7V11.6C52.8 11.5 52.8 11.4 52.7 11.3L41.7 0.3C41.6 0.2 41.5 0.2 41.4 0.1H41.3C41.2 0.1 41.1 0 41 0H8C7.4 0 7 0.4 7 1V59C7 59.6 7.4 60 8 60H13H19H24H33H52C52.6 60 53 59.6 53 59V12ZM49.6 11H42V3.4L49.6 11ZM14 23H18V52H14V23ZM14.5 21L16 17.5L17.5 21H14.5ZM14 58V54H18V58H14ZM25 58V52H29V50H25V44H29V42H25V35H29V33H25V27H29V25H25V20H32V58H25ZM34 58V19C34 18.4 33.6 18 33 18H24C23.4 18 23 18.4 23 19V58H20V53V22C20 21.7 19.9 21.4 19.7 21.3L16.9 14.7C16.8 14.3 16.4 14.1 16 14.1C15.6 14.1 15.3 14.3 15.1 14.7L12.3 21.3C12.1 21.5 12 21.7 12 22V53V58H9V2H40V12C40 12.6 40.4 13 41 13H51V58H34Z" fill="#016938"/>
<path d="M20 5H12V7H20V5Z" fill="#016938"/>
<path d="M47 22H38V24H47V22Z" fill="#016938"/>
<path d="M47 27H38V29H47V27Z" fill="#016938"/>
<path d="M47 32H38V34H47V32Z" fill="#016938"/>
<path d="M47 37H38V39H47V37Z" fill="#016938"/>
<path d="M47 42H38V44H47V42Z" fill="#016938"/>
<path d="M47 47H38V49H47V47Z" fill="#016938"/>
<path d="M47 52H38V54H47V52Z" fill="#016938"/>
<path d="M28 9H12V11H28V9Z" fill="#016938"/>
</svg>
