<svg width="24" height="24" viewBox="0 0 24 24" fill="none" xmlns="http://www.w3.org/2000/svg">
<path fill-rule="evenodd" clip-rule="evenodd" d="M12 23C5.92488 23 1.00001 18.0751 1.00001 12C1.00001 5.92487 5.92488 1 12 1C18.0751 1 23 5.92487 23 12C23 18.0751 18.0751 23 12 23ZM12 21C16.9706 21 21 16.9706 21 12C21 7.02946 16.9706 3.00002 12 3.00002C7.02946 3.00002 3.00002 7.02946 3.00002 12C3.00002 16.9706 7.02946 21 12 21ZM15.2929 8.2929L9.99998 13.5858L7.70709 11.2929L6.29287 12.7071L9.99998 16.4142L16.7071 9.70711L15.2929 8.2929Z" fill="#016938"/>
</svg>
