<svg width="40" height="40" viewBox="0 0 40 40" fill="none" xmlns="http://www.w3.org/2000/svg">
<path d="M2.1393 24.5376C2.27 24.8919 2.47594 25.2108 2.73945 25.4722C3.20672 25.9394 3.84906 26.2295 4.55766 26.2295C5.26414 26.2295 5.90859 25.9394 6.37578 25.4722C6.84305 25.005 7.13313 24.3605 7.13313 23.654V22.2212C6.59063 22.2677 6.11445 22.1504 5.74242 21.9953C5.70914 22.1569 5.67156 22.3142 5.62281 22.4692C5.43898 23.0671 5.13117 23.6119 4.64398 24.0039C4.15016 24.4026 3.49469 24.6329 2.62648 24.5885C2.47148 24.5819 2.30977 24.5642 2.1393 24.5376ZM17.3182 20.6998H22.4693V19.0809H18.503C18.1774 19.0809 17.8806 19.2161 17.6659 19.4308C17.451 19.6457 17.3182 19.9402 17.3182 20.2658V20.6998ZM22.4692 21.8713H17.3181V23.654C17.3181 24.3605 17.6082 25.0049 18.0755 25.4721C18.5427 25.9394 19.1871 26.2294 19.8936 26.2294C20.6022 26.2294 21.2466 25.9394 21.7118 25.4721C22.179 25.0049 22.4691 24.3605 22.4691 23.654V21.8713H22.4692ZM38.5251 25.7822C38.8395 25.9483 39.1163 26.1743 39.3445 26.4422C39.7541 26.925 40 27.5473 40 28.2226V32.1734C40 32.4968 39.7387 32.758 39.4154 32.758C39.0921 32.758 38.8285 32.4967 38.8285 32.1734V28.2226C38.8285 27.833 38.6867 27.4741 38.452 27.1973C38.2438 26.9515 37.9626 26.7699 37.6415 26.6836C37.0237 27.1353 36.2639 27.4011 35.4446 27.4011C34.5965 27.4011 33.8124 27.1176 33.1813 26.6371C33.0617 26.6504 32.9465 26.6837 32.8358 26.7346C32.6852 26.8054 32.5479 26.914 32.4371 27.0601L29.2902 31.228C29.1795 31.3741 29.0067 31.4627 28.823 31.4627H24.7902C24.4913 31.4627 24.2211 31.5823 24.0263 31.7771C23.8313 31.9742 23.7095 32.2444 23.7095 32.5412C23.7095 32.8401 23.8313 33.1103 24.0263 33.3051C24.2211 33.5 24.4913 33.6219 24.7902 33.6219H29.6069C29.7997 33.6219 29.948 33.6019 30.1319 33.5089C30.4729 33.3383 30.7918 32.8202 31.0243 32.5101L33.1083 29.753C33.3031 29.494 33.6685 29.443 33.9276 29.6379C34.1845 29.8327 34.2354 30.2003 34.0405 30.4573L32.0585 33.0837V38.1905H38.8285V34.8265C38.8285 34.5031 39.092 34.2419 39.4154 34.2419C39.7388 34.2419 40 34.5032 40 34.8265V38.7773C40 39.1006 39.7387 39.3619 39.4154 39.3619C26.471 39.3619 13.529 39.3619 0.586875 39.3619C0.263594 39.3619 0 39.1005 0 38.7773V34.8265C0 34.5031 0.263594 34.2419 0.586875 34.2419C0.910234 34.2419 1.17148 34.5032 1.17148 34.8265V38.1905H7.94375V33.0837L5.95953 30.4573C5.76469 30.2003 5.81563 29.8327 6.07477 29.6379C6.33164 29.443 6.69922 29.4939 6.89414 29.753L8.93148 32.4504C9.1175 32.6962 9.30359 32.9441 9.48953 33.1922C9.59578 33.3317 9.72648 33.438 9.87047 33.5089C10.0321 33.5908 10.1827 33.6219 10.3599 33.6219H15.212C15.5088 33.6219 15.779 33.5 15.976 33.3051C16.1709 33.1103 16.2905 32.8401 16.2905 32.5412C16.2905 32.2444 16.1709 31.9742 15.976 31.7771C15.779 31.5823 15.5088 31.4627 15.212 31.4627H11.1771C10.9999 31.4627 10.825 31.3808 10.7099 31.228L7.56297 27.0601C7.38352 26.8231 7.11555 26.6704 6.81891 26.6371C6.18992 27.1155 5.40602 27.4011 4.55781 27.4011C3.73844 27.4011 2.97656 27.1354 2.35875 26.6858C2.0443 26.7678 1.76523 26.9472 1.55703 27.1863C1.31781 27.4653 1.17164 27.8263 1.17164 28.2227V32.1735C1.17164 32.4969 0.910312 32.7581 0.587031 32.7581C0.26375 32.7581 0.00015625 32.4968 0.00015625 32.1735V28.2227C0.00015625 27.5384 0.254844 26.9073 0.673359 26.4223C0.899297 26.1633 1.17164 25.944 1.47727 25.7823C1.04102 25.1556 0.810703 24.4159 0.810703 23.6541V20.2658C0.810703 19.6169 1.07422 19.0279 1.50164 18.6005C1.92914 18.1754 2.51594 17.9096 3.16477 17.9096H5.94844C6.59734 17.9096 7.18641 18.1753 7.61375 18.6005C8.04125 19.028 8.30477 19.617 8.30477 20.2658V23.6541C8.30477 24.4048 8.08109 25.1069 7.69789 25.6937C8.01461 25.8532 8.2825 26.0724 8.49734 26.3559L11.4672 30.289H13.8123V27.9128C13.8123 27.2396 14.1689 26.6305 14.7469 26.1145C15.1943 25.7159 15.7834 25.3682 16.4345 25.0937C16.2484 24.6485 16.1466 24.1635 16.1466 23.6541V21.2867V20.2658C16.1466 19.6169 16.4123 19.0278 16.8377 18.6005C17.2651 18.1753 17.8541 17.9095 18.503 17.9095H23.0561C23.3795 17.9095 23.643 18.173 23.643 18.4964V21.2868V23.6541C23.643 24.1347 23.5501 24.5954 23.384 25.0205C24.0837 25.2951 24.7171 25.6494 25.1955 26.0613C25.8089 26.5884 26.1877 27.2173 26.1877 27.9127V30.2889H28.5328L31.5027 26.3558C31.722 26.0679 31.9965 25.8465 32.3044 25.6959C31.919 25.1069 31.6953 24.4048 31.6953 23.654V20.2658C31.6953 19.6169 31.9611 19.0278 32.3863 18.6005C32.8138 18.1753 33.4028 17.9095 34.0516 17.9095H36.8355C37.4843 17.9095 38.0734 18.1752 38.5008 18.6005C38.9259 19.0279 39.1917 19.6169 39.1917 20.2658V23.654C39.1916 24.4158 38.9591 25.1555 38.5251 25.7822ZM37.8607 24.5376C37.6924 24.5642 37.5285 24.5819 37.3735 24.5885C36.5076 24.6328 35.852 24.4025 35.3582 24.0039C34.8687 23.6119 34.5609 23.0672 34.3771 22.4692C34.3305 22.3142 34.2908 22.1569 34.2597 21.9953C33.8855 22.1503 33.4116 22.2676 32.8668 22.2212V23.654C32.8668 24.3605 33.1569 25.005 33.6241 25.4722C34.0913 25.9394 34.7359 26.2295 35.4445 26.2295C36.1509 26.2295 36.7955 25.9394 37.2627 25.4722C37.5241 25.2108 37.73 24.8919 37.8607 24.5376ZM32.8668 21.0475C33.6485 21.1582 34.2198 20.7042 34.3217 20.6156C34.437 20.5182 34.5454 20.4584 34.7027 20.4517C35.026 20.4362 35.2984 20.6843 35.3138 21.0076C35.3338 21.3885 35.3869 21.7739 35.4954 22.1259C35.615 22.5179 35.8032 22.8633 36.089 23.0937C36.3702 23.3196 36.7667 23.448 37.3181 23.4214C37.5307 23.4103 37.7632 23.3772 38.0201 23.3195V20.2656C38.0201 19.9401 37.885 19.6455 37.6702 19.4307C37.4554 19.2159 37.1608 19.0808 36.8353 19.0808H34.0516C33.726 19.0808 33.4314 19.2159 33.2166 19.4307C33.0018 19.6455 32.8668 19.9401 32.8668 20.2656V21.0475ZM7.1332 21.0475V20.2657C7.1332 19.9401 7.00039 19.6456 6.78555 19.4308C6.57078 19.216 6.27398 19.0808 5.94844 19.0808H3.16461C2.84133 19.0808 2.54453 19.216 2.32969 19.4308C2.11492 19.6456 1.98203 19.9401 1.98203 20.2657V23.3196C2.23672 23.3772 2.46922 23.4104 2.68187 23.4215C3.23336 23.4481 3.62977 23.3196 3.91094 23.0937C4.19664 22.8635 4.38484 22.518 4.50672 22.126C4.61523 21.7739 4.66836 21.3886 4.68609 21.0076C4.70156 20.6843 4.97617 20.4363 5.29727 20.4518C5.44789 20.4585 5.56297 20.5138 5.67375 20.6112C5.75578 20.6843 6.33602 21.1604 7.1332 21.0475ZM17.0613 26.1012C16.45 26.3381 15.9097 26.6393 15.5243 26.9848C15.1899 27.2815 14.9839 27.6005 14.9839 27.9127V30.2889H15.212C15.8322 30.2889 16.3969 30.5413 16.8044 30.9488C17.2119 31.3563 17.4643 31.9188 17.4643 32.5412C17.4643 32.9331 17.3624 33.3008 17.1875 33.6219H22.8125C22.6376 33.3008 22.5379 32.9331 22.5379 32.5412C22.5379 31.9188 22.7903 31.3563 23.1979 30.9488C23.6054 30.5413 24.1678 30.2889 24.7902 30.2889H25.0161V27.9127C25.0161 27.5894 24.7946 27.2572 24.4359 26.9494C24.0151 26.5884 23.4304 26.2762 22.7793 26.0392C22.704 26.13 22.6243 26.2186 22.5423 26.3005C21.8625 26.9804 20.9257 27.4012 19.8937 27.4012C18.8639 27.4012 17.925 26.9804 17.2473 26.3005C17.183 26.2362 17.121 26.1698 17.0613 26.1012ZM4.8832 4.97631C4.55984 4.97631 4.29859 4.7128 4.29859 4.38944C4.29859 4.06608 4.55992 3.80483 4.8832 3.80483H15.7302C16.0536 3.80483 16.3149 4.06616 16.3149 4.38944C16.3149 4.7128 16.0535 4.97631 15.7302 4.97631H4.8832ZM4.8832 11.1417C4.55984 11.1417 4.29859 10.8782 4.29859 10.5548C4.29859 10.2315 4.55992 9.96795 4.8832 9.96795H10.3068C10.6302 9.96795 10.8937 10.2315 10.8937 10.5548C10.8937 10.8782 10.6302 11.1417 10.3068 11.1417H4.8832ZM4.8832 8.05905C4.55984 8.05905 4.29859 7.79545 4.29859 7.47217C4.29859 7.14881 4.55992 6.88756 4.8832 6.88756H15.7302C16.0536 6.88756 16.3149 7.14889 16.3149 7.47217C16.3149 7.79545 16.0535 8.05905 15.7302 8.05905H4.8832ZM16.3304 14.3063C16.4123 14.5344 16.543 14.7381 16.7091 14.9042C17.0059 15.2032 17.4178 15.3892 17.8762 15.3892H21.3198C21.6432 15.3892 21.9045 15.6505 21.9045 15.9761C21.9045 16.2994 21.6431 16.5607 21.3198 16.5607H17.8762C17.0945 16.5607 16.3902 16.2419 15.8808 15.728C15.4999 15.345 15.2297 14.8533 15.1145 14.3063H6.945L4.29195 16.9594C4.1857 17.0657 4.03953 17.1321 3.87563 17.1321C3.55227 17.1321 3.28875 16.8708 3.28875 16.5475V14.2576C2.54461 14.1336 1.87797 13.7771 1.36648 13.2633C0.722031 12.621 0.323437 11.733 0.323437 10.7541V4.19022C0.323437 3.21358 0.722109 2.32553 1.36648 1.68116C2.00867 1.03889 2.89672 0.638031 3.87563 0.638031H16.738C17.7168 0.638031 18.6049 1.03889 19.2471 1.68116C19.8916 2.32553 20.2902 3.21358 20.2902 4.19022V5.27537H30.2427C31.0199 5.27537 31.7242 5.59209 32.2358 6.10366C32.7473 6.61522 33.0641 7.31944 33.0641 8.09678V13.7395C33.0641 14.5169 32.7473 15.2211 32.2358 15.7326C31.857 16.1114 31.3699 16.3837 30.8273 16.499V18.8021C30.8273 18.9505 30.772 19.101 30.6568 19.2162C30.4287 19.4443 30.0566 19.4443 29.8284 19.2162L27.1732 16.5609H23.9731C23.6498 16.5609 23.3862 16.2996 23.3862 15.9763C23.3862 15.6508 23.6498 15.3894 23.9731 15.3894H27.4168C27.5807 15.3894 27.7268 15.4559 27.8331 15.5644L29.6557 17.3869V15.9762C29.6557 15.6507 29.9192 15.3894 30.2427 15.3894C30.6944 15.3894 31.1085 15.2033 31.4075 14.9044C31.7065 14.6055 31.8925 14.1935 31.8925 13.7395V8.09678C31.8925 7.6428 31.7065 7.23092 31.4075 6.93194C31.1085 6.63295 30.6944 6.44694 30.2427 6.44694H20.2901V10.7543C20.2901 11.7331 19.8915 12.6212 19.247 13.2634C18.6048 13.9078 17.7167 14.3065 16.738 14.3065H16.3304V14.3063ZM6.70133 13.1348H16.738C17.3935 13.1348 17.987 12.8669 18.4188 12.4351C18.8506 12.0032 19.1186 11.4075 19.1186 10.7541V4.19022C19.1186 3.53694 18.8506 2.94123 18.4188 2.50936C17.987 2.07748 17.3935 1.80952 16.738 1.80952H3.87555C3.22 1.80952 2.62648 2.07748 2.19461 2.50936C1.76281 2.94116 1.49477 3.53686 1.49477 4.19022V10.7542C1.49477 11.4075 1.76281 12.0032 2.19461 12.4351C2.62641 12.8669 3.22 13.1349 3.87555 13.1349C4.19891 13.1349 4.46016 13.3984 4.46016 13.7218V15.1325L6.28719 13.3077C6.40242 13.1924 6.55078 13.1348 6.70133 13.1348ZM30.887 34.7933H9.11531V38.1904H30.887V34.7933H30.887Z" fill="#016938"/>
</svg>
