<svg width="40" height="40" viewBox="0 0 40 40" fill="none" xmlns="http://www.w3.org/2000/svg">
<g clip-path="url(#clip0)">
<path d="M26.619 28.5143C25.6371 28.5143 24.7463 28.0143 24.2361 27.1767C24.0446 26.8622 23.6343 26.7625 23.32 26.9541C23.0056 27.1456 22.9059 27.5559 23.0975 27.8703C23.4523 28.4528 23.9326 28.9231 24.4918 29.2597L23.8009 32.3953L22.1351 30.4772C22.4376 30.1295 22.3646 29.7234 22.1041 29.4969C21.8264 29.2554 21.4052 29.2846 21.1636 29.5624L19.9914 30.9104L17.0387 27.6297C17.29 27.1472 17.4423 26.6175 17.4858 26.0655C23.2003 27.7477 28.9167 23.4348 28.9167 17.5104V12C28.9167 11.6318 28.6182 11.3333 28.25 11.3333C27.8819 11.3333 27.5834 11.6318 27.5834 12V17.5104C27.5834 21.6918 24.1816 25.0937 20.0001 25.0937C15.8186 25.0937 12.4167 21.6919 12.4167 17.5104V11.8526C14.042 11.7604 15.4244 10.74 15.9171 8.89065C18.6929 10.6683 21.8044 11.8201 25.0697 12.2771C25.4357 12.3281 25.7716 12.0729 25.8224 11.7093C25.8734 11.3447 25.6192 11.0077 25.2546 10.9566C21.9296 10.4912 18.685 9.24681 15.8019 7.20582C15.3612 6.89365 14.7474 7.21124 14.7501 7.75423C14.7502 7.77082 14.7439 9.42423 13.4897 10.1787C12.6967 10.6559 11.8945 10.5018 11.7565 10.5003C11.4157 10.4971 11.127 10.7527 11.0882 11.09C11.0808 11.1545 11.0834 10.9349 11.0834 16.4246C10.6381 16.1936 10.3334 15.734 10.3334 15.205V7.08332C10.3334 6.21024 11.0437 5.49999 11.9167 5.49999C12.1893 5.49999 12.4345 5.33399 12.5357 5.08091C13.4464 2.80433 15.6191 1.33333 18.0711 1.33333H23.7883C27.0757 1.33333 29.75 4.00774 29.75 7.29507V15.205C29.75 15.5731 30.0485 15.8716 30.4167 15.8716C30.7849 15.8716 31.0834 15.5731 31.0834 15.205V7.29507C31.0834 3.27258 27.8109 0 23.7883 0H18.0711C15.2111 0 12.6613 1.63583 11.464 4.20174C10.07 4.41999 9.00009 5.62907 9.00009 7.08332V15.205C9.00009 16.4804 9.89242 17.5523 11.0902 17.84C11.2146 21.245 13.2568 24.1686 16.1667 25.5599V25.7358C16.1667 26.4785 15.8771 27.1764 15.3512 27.7009C14.4184 28.6309 13.243 28.5143 13.381 28.5143C9.578 28.5143 6.50009 31.5918 6.50009 35.3952V39.3333C6.50009 39.7014 6.79859 39.9999 7.16676 39.9999C7.53492 39.9999 7.83342 39.7014 7.83342 39.3333V35.3952C7.83342 32.3289 10.3147 29.8475 13.3812 29.8476C13.6729 29.8476 13.9642 29.8166 14.2522 29.755L15.1824 33.9767C15.3002 34.5113 15.9783 34.683 16.3368 34.2703L17.6502 32.758L16.8387 39.2506C16.793 39.6159 17.0522 39.9491 17.4175 39.9948C17.7835 40.0403 18.1161 39.7808 18.1617 39.4159L19.0997 31.9125C19.1421 31.9596 19.5126 32.3752 19.5601 32.4171C19.8353 32.6586 20.2545 32.6341 20.4991 32.3582C20.631 32.2073 20.29 32.5992 20.899 31.8989L21.8386 39.4158C21.8841 39.7807 22.2166 40.0403 22.5828 39.9947C22.9481 39.949 23.2073 39.6158 23.1616 39.2505L22.3501 32.7579L23.6635 34.2703C24.0225 34.6837 24.7003 34.5103 24.8179 33.9766L25.7481 29.7548C26.0306 29.8148 26.3217 29.8474 26.6191 29.8474C29.6852 29.8475 32.1667 32.3287 32.1667 35.3952V39.3333C32.1667 39.7014 32.4652 39.9999 32.8334 39.9999C33.2015 39.9999 33.5 39.7014 33.5 39.3333V35.3952C33.5 31.5921 30.4225 28.5141 26.619 28.5143ZM16.1992 32.3953L15.5082 29.2588C15.7623 29.1053 16.0007 28.9225 16.2205 28.7135L17.8368 30.5095L16.1992 32.3953Z" fill="#016938"/>
</g>
<defs>
<clipPath id="clip0">
<rect width="40" height="40" fill="white"/>
</clipPath>
</defs>
</svg>
