<svg width="60" height="60" viewBox="0 0 60 60" fill="none" xmlns="http://www.w3.org/2000/svg">
<path d="M58.125 10.3126C58.3736 10.3126 58.6121 10.2138 58.7879 10.038C58.9637 9.86216 59.0625 9.6237 59.0625 9.37506V5.62506C59.0625 5.37642 58.9637 5.13796 58.7879 4.96215C58.6121 4.78633 58.3736 4.68756 58.125 4.68756H34.5938C34.3786 3.62792 33.8037 2.67524 32.9665 1.99096C32.1293 1.30667 31.0813 0.932861 30 0.932861C28.9187 0.932861 27.8707 1.30667 27.0335 1.99096C26.1963 2.67524 25.6214 3.62792 25.4062 4.68756H1.875C1.62636 4.68756 1.3879 4.78633 1.21209 4.96215C1.03627 5.13796 0.9375 5.37642 0.9375 5.62506V9.37506C0.9375 9.6237 1.03627 9.86216 1.21209 10.038C1.3879 10.2138 1.62636 10.3126 1.875 10.3126H2.8125V40.3126H1.875C1.62636 40.3126 1.3879 40.4113 1.21209 40.5871C1.03627 40.763 0.9375 41.0014 0.9375 41.2501V45.0001C0.9375 45.2487 1.03627 45.4872 1.21209 45.663C1.3879 45.8388 1.62636 45.9376 1.875 45.9376H25.4062C25.59 46.8384 26.0345 47.6653 26.6846 48.3154C27.3347 48.9655 28.1617 49.4101 29.0625 49.5938V53.6063C28.437 53.8275 27.9098 54.2626 27.5741 54.8349C27.2384 55.4071 27.1158 56.0797 27.228 56.7336C27.3402 57.3875 27.6799 57.9807 28.1872 58.4083C28.6944 58.8359 29.3365 59.0705 30 59.0705C30.6635 59.0705 31.3056 58.8359 31.8128 58.4083C32.3201 57.9807 32.6598 57.3875 32.772 56.7336C32.8842 56.0797 32.7616 55.4071 32.4259 54.8349C32.0902 54.2626 31.563 53.8275 30.9375 53.6063V49.5938C31.8383 49.4101 32.6653 48.9655 33.3154 48.3154C33.9655 47.6653 34.41 46.8384 34.5938 45.9376H58.125C58.3736 45.9376 58.6121 45.8388 58.7879 45.663C58.9637 45.4872 59.0625 45.2487 59.0625 45.0001V41.2501C59.0625 41.0014 58.9637 40.763 58.7879 40.5871C58.6121 40.4113 58.3736 40.3126 58.125 40.3126H57.1875V10.3126H58.125ZM30 2.81256C30.5803 2.81419 31.1458 2.99526 31.6191 3.33094C32.0924 3.66662 32.4503 4.14048 32.6437 4.68756H27.3563C27.5497 4.14048 27.9076 3.66662 28.3809 3.33094C28.8542 2.99526 29.4197 2.81419 30 2.81256ZM2.8125 6.56256H57.1875V8.43756H2.8125V6.56256ZM30 57.1876C29.8146 57.1876 29.6333 57.1326 29.4792 57.0296C29.325 56.9266 29.2048 56.7801 29.1339 56.6088C29.0629 56.4375 29.0443 56.249 29.0805 56.0672C29.1167 55.8853 29.206 55.7183 29.3371 55.5871C29.4682 55.456 29.6352 55.3667 29.8171 55.3306C29.999 55.2944 30.1875 55.313 30.3588 55.3839C30.5301 55.4549 30.6765 55.575 30.7795 55.7292C30.8825 55.8834 30.9375 56.0646 30.9375 56.2501C30.9375 56.4987 30.8387 56.7372 30.6629 56.913C30.4871 57.0888 30.2486 57.1876 30 57.1876ZM30 47.8126C29.4197 47.8109 28.8542 47.6299 28.3809 47.2942C27.9076 46.9585 27.5497 46.4846 27.3563 45.9376H32.6437C32.4503 46.4846 32.0924 46.9585 31.6191 47.2942C31.1458 47.6299 30.5803 47.8109 30 47.8126ZM57.1875 44.0626H2.8125V42.1876H57.1875V44.0626ZM55.3125 40.3126H4.6875V10.3126H55.3125V40.3126Z" fill="#016938"/>
<path d="M30 36.5626C32.225 36.5626 34.4001 35.9028 36.2502 34.6666C38.1002 33.4305 39.5421 31.6735 40.3936 29.6178C41.2451 27.5621 41.4679 25.3001 41.0338 23.1179C40.5997 20.9356 39.5283 18.931 37.9549 17.3577C36.3816 15.7843 34.377 14.7129 32.1948 14.2788C30.0125 13.8447 27.7505 14.0675 25.6948 14.919C23.6391 15.7705 21.8821 17.2124 20.646 19.0625C19.4098 20.9125 18.75 23.0876 18.75 25.3126C18.75 28.2963 19.9353 31.1578 22.045 33.2676C24.1548 35.3774 27.0163 36.5626 30 36.5626ZM30 15.9376C31.8542 15.9376 33.6667 16.4875 35.2085 17.5176C36.7502 18.5477 37.9518 20.0119 38.6614 21.725C39.3709 23.438 39.5566 25.323 39.1948 27.1416C38.8331 28.9602 37.9402 30.6306 36.6291 31.9417C35.318 33.2529 33.6475 34.1457 31.829 34.5075C30.0104 34.8692 28.1254 34.6836 26.4123 33.974C24.6993 33.2644 23.2351 32.0628 22.205 30.5211C21.1748 28.9794 20.625 27.1668 20.625 25.3126C20.625 22.8262 21.6127 20.4417 23.3709 18.6835C25.129 16.9253 27.5136 15.9376 30 15.9376Z" fill="#016938"/>
<path d="M26.7656 31.772C26.895 31.8422 27.0403 31.8777 27.1875 31.8751C27.3903 31.8751 27.5877 31.8093 27.75 31.6876L35.25 26.0626C35.3664 25.9753 35.4609 25.8621 35.526 25.7319C35.5911 25.6017 35.625 25.4582 35.625 25.3126C35.625 25.1671 35.5911 25.0235 35.526 24.8934C35.4609 24.7632 35.3664 24.65 35.25 24.5626L27.75 18.9376C27.61 18.8333 27.4437 18.7702 27.2698 18.7553C27.0959 18.7403 26.9213 18.7743 26.7656 18.8533C26.611 18.9312 26.481 19.0504 26.39 19.1976C26.299 19.3449 26.2505 19.5145 26.25 19.6876V30.9376C26.2505 31.1107 26.299 31.2803 26.39 31.4276C26.481 31.5749 26.611 31.6941 26.7656 31.772ZM28.125 21.5626L33.1219 25.3126L28.125 29.0626V21.5626Z" fill="#016938"/>
</svg>
