<svg width="40" height="40" viewBox="0 0 40 40" fill="none" xmlns="http://www.w3.org/2000/svg">
<path d="M11.7969 27.1094C11.7969 25.1709 10.2198 23.5938 8.28125 23.5938C6.34273 23.5938 4.76562 25.1709 4.76562 27.1094C4.76562 29.0479 6.34273 30.625 8.28125 30.625C10.2198 30.625 11.7969 29.0479 11.7969 27.1094ZM8.28125 28.2812C7.63508 28.2812 7.10938 27.7555 7.10938 27.1094C7.10938 26.4632 7.63508 25.9375 8.28125 25.9375C8.92742 25.9375 9.45312 26.4632 9.45312 27.1094C9.45312 27.7555 8.92742 28.2812 8.28125 28.2812Z" fill="#016938"/>
<path d="M23.5156 29.4531C23.5156 27.5146 21.9385 25.9375 20 25.9375C18.0615 25.9375 16.4844 27.5146 16.4844 29.4531C16.4844 31.3916 18.0615 32.9688 20 32.9688C21.9385 32.9688 23.5156 31.3916 23.5156 29.4531ZM20 30.625C19.3538 30.625 18.8281 30.0993 18.8281 29.4531C18.8281 28.807 19.3538 28.2812 20 28.2812C20.6462 28.2812 21.1719 28.807 21.1719 29.4531C21.1719 30.0993 20.6462 30.625 20 30.625Z" fill="#016938"/>
<path d="M35.2344 27.1094C35.2344 25.1709 33.6573 23.5938 31.7188 23.5938C29.7802 23.5938 28.2031 25.1709 28.2031 27.1094C28.2031 29.0479 29.7802 30.625 31.7188 30.625C33.6573 30.625 35.2344 29.0479 35.2344 27.1094ZM31.7188 28.2812C31.0726 28.2812 30.5469 27.7555 30.5469 27.1094C30.5469 26.4632 31.0726 25.9375 31.7188 25.9375C32.3649 25.9375 32.8906 26.4632 32.8906 27.1094C32.8906 27.7555 32.3649 28.2812 31.7188 28.2812Z" fill="#016938"/>
<path d="M8.28125 30.625C5.05039 30.625 2.42188 33.2535 2.42188 36.4844C2.42188 37.1316 2.94656 37.6562 3.59375 37.6562H12.9688C13.6159 37.6562 14.1406 37.1316 14.1406 36.4844C14.1406 33.2535 11.5121 30.625 8.28125 30.625ZM4.96641 35.3125C5.45 33.9484 6.75336 32.9688 8.28125 32.9688C9.80914 32.9688 11.1124 33.9484 11.5961 35.3125H4.96641Z" fill="#016938"/>
<path d="M20 32.9688C16.7691 32.9688 14.1406 35.5973 14.1406 38.8281C14.1406 39.4753 14.6653 40 15.3125 40H24.6875C25.3347 40 25.8594 39.4753 25.8594 38.8281C25.8594 35.5973 23.2309 32.9688 20 32.9688ZM16.6852 37.6562C17.1688 36.2921 18.4721 35.3125 20 35.3125C21.5279 35.3125 22.8312 36.2921 23.3148 37.6562H16.6852Z" fill="#016938"/>
<path d="M31.7188 30.625C28.4879 30.625 25.8594 33.2535 25.8594 36.4844C25.8594 37.1316 26.3841 37.6562 27.0312 37.6562H36.4062C37.0534 37.6562 37.5781 37.1316 37.5781 36.4844C37.5781 33.2535 34.9496 30.625 31.7188 30.625ZM28.4039 35.3125C28.8875 33.9484 30.1909 32.9688 31.7188 32.9688C33.2466 32.9688 34.5499 33.9484 35.0336 35.3125H28.4039Z" fill="#016938"/>
<path d="M23.5156 8.20312C23.5156 6.26461 21.9385 4.6875 20 4.6875C18.0615 4.6875 16.4844 6.26461 16.4844 8.20312C16.4844 10.1416 18.0615 11.7188 20 11.7188C21.9385 11.7188 23.5156 10.1416 23.5156 8.20312ZM20 9.375C19.3538 9.375 18.8281 8.8493 18.8281 8.20312C18.8281 7.55695 19.3538 7.03125 20 7.03125C20.6462 7.03125 21.1719 7.55695 21.1719 8.20312C21.1719 8.8493 20.6462 9.375 20 9.375Z" fill="#016938"/>
<path d="M38.8281 2.34375C39.4753 2.34375 40 1.81906 40 1.17188C40 0.524687 39.4753 0 38.8281 0H1.17188C0.524687 0 0 0.524687 0 1.17188C0 1.81906 0.524687 2.34375 1.17188 2.34375H2.34375V18.9062H1.17188C0.524687 18.9062 0 19.4309 0 20.0781C0 20.7253 0.524687 21.25 1.17188 21.25H38.8281C39.4753 21.25 40 20.7253 40 20.0781C40 19.4309 39.4753 18.9062 38.8281 18.9062H37.6562V2.34375H38.8281ZM16.4844 18.9062V17.6562C16.4844 15.7082 18.0943 14.0625 20 14.0625C21.9057 14.0625 23.5156 15.7082 23.5156 17.6562V18.9062H16.4844ZM35.3125 18.9062H25.8594V17.6562C25.8594 14.4173 23.2395 11.7188 20 11.7188C16.7612 11.7188 14.1406 14.4166 14.1406 17.6562V18.9062H4.6875V2.34375H35.3125V18.9062Z" fill="#016938"/>
</svg>
