<svg width="60" height="60" viewBox="0 0 60 60" fill="none" xmlns="http://www.w3.org/2000/svg">
<path d="M29.8954 7.62422C30.5472 7.62422 31.0756 7.09582 31.0756 6.44402V1.1802C31.0756 0.528398 30.5472 0 29.8954 0C29.2436 0 28.7152 0.528398 28.7152 1.1802V6.44402C28.7153 7.09582 29.2437 7.62422 29.8954 7.62422Z" fill="#016938"/>
<path d="M58.7438 40.5451L56.6589 38.4661C55.9172 37.7253 54.9287 37.3173 53.8754 37.3173C53.202 37.3173 52.5554 37.4848 51.9825 37.7988L48.0537 33.8747L48.245 33.6835C49.8389 32.0865 49.8383 29.4914 48.2449 27.8997C47.6755 27.3293 46.965 26.9489 46.1905 26.7888C46.2971 26.4207 46.3533 26.0352 46.3533 25.6406C46.3533 24.5443 45.9274 23.5163 45.1566 22.7486C44.587 22.1782 43.8766 21.7978 43.1021 21.6377C43.2088 21.2696 43.2649 20.8842 43.2649 20.4895C43.2649 19.3931 42.8391 18.3652 42.0669 17.5964C41.4838 17.014 40.767 16.6453 40.0143 16.4884C40.4169 15.1 40.0729 13.5381 38.9807 12.444C38.0715 11.5387 36.8379 11.1497 35.649 11.2758L27.8637 9.80212C26.6763 9.57688 25.1936 9.42794 24.2576 10.2816C24.1985 10.3356 24.1383 10.3975 24.079 10.4666C22.6277 9.93759 20.9351 10.2526 19.7729 11.4134C19.002 12.1835 18.5773 13.211 18.5773 14.3067C18.5773 14.7014 18.6332 15.0868 18.7397 15.455C17.966 15.615 17.2564 15.9949 16.6889 16.5635C15.9164 17.3328 15.4904 18.3591 15.4896 19.4536C15.4893 19.8492 15.5454 20.2359 15.6525 20.605C14.8785 20.7647 14.1684 21.1439 13.5991 21.7125C12.8266 22.4841 12.4013 23.5122 12.4013 24.6074C12.4013 25.4462 12.6517 26.2453 13.1157 26.9203C12.5298 27.1189 11.9931 27.4495 11.5437 27.8984C9.94875 29.4914 9.94817 32.0866 11.5447 33.686L11.7354 33.8758L7.8061 37.798C6.34582 37.1104 4.54664 37.368 3.3416 38.5715L1.25543 40.6518C0.5134 41.3929 0.104884 42.3815 0.104767 43.4354C0.104767 44.4894 0.5134 45.4781 1.25543 46.2193L3.85899 48.8197C4.32012 49.2804 5.06742 49.2799 5.52797 48.8188C5.98863 48.3576 5.98817 47.6103 5.52703 47.1498L2.92348 44.5494C2.62793 44.2542 2.46516 43.8586 2.46516 43.4355C2.46516 43.0126 2.62793 42.6171 2.92277 42.3226L5.00906 40.2422C5.53031 39.7215 6.32813 39.6439 6.93399 40.0061C6.97664 40.0702 7.02598 40.1312 7.08246 40.1878C7.18359 40.2891 7.29902 40.3668 7.4216 40.4237L19.3856 52.3701C19.4425 52.494 19.5205 52.6106 19.6223 52.7125C19.7215 52.8118 19.8346 52.8886 19.9546 52.945C20.2076 53.2311 20.3474 53.5965 20.3474 53.9863C20.3474 54.4093 20.1846 54.8048 19.8891 55.1L17.8049 57.1817C17.1891 57.7948 16.1873 57.7947 15.5734 57.1836L12.9698 54.5798C12.5089 54.1189 11.7618 54.1189 11.3009 54.5798C10.84 55.0407 10.84 55.7879 11.3009 56.2488L13.9063 58.8545C14.6732 59.6182 15.6803 59.9998 16.6879 59.9998C17.6957 59.9998 18.7039 59.6176 19.4718 58.8532L21.5572 56.7702C22.2993 56.0289 22.7079 55.0404 22.7079 53.9863C22.7079 53.234 22.4987 52.5157 22.1098 51.8962L26.532 47.4794C26.5366 47.4746 26.5413 47.4698 26.5461 47.465C27.0525 46.9415 28.4626 47.0395 29.8263 47.1342C30.7952 47.2016 31.8755 47.2765 32.9309 47.1548L37.7735 51.9917C37.4598 52.5637 37.2923 53.2094 37.2923 53.8818C37.2923 54.9348 37.701 55.9228 38.443 56.664L40.5286 58.747C41.2702 59.4877 42.2586 59.8958 43.3119 59.8958C44.3651 59.8958 45.3536 59.4879 46.0952 58.747L58.7446 46.113C59.4866 45.3719 59.8952 44.3833 59.8952 43.3293C59.8951 42.2755 59.4865 41.2869 58.7438 40.5451ZM27.4242 12.1213L32.5438 13.0903L29.4795 16.1534C29.0054 15.9256 28.3557 15.5007 27.643 14.8189C26.6674 13.8856 25.9696 12.8081 25.9061 12.136C25.9059 12.1357 25.9059 12.1353 25.9059 12.135C25.9059 12.1349 25.9058 12.1347 25.9058 12.1346C25.9013 12.0863 25.9001 12.0478 25.9007 12.0184C26.055 11.9809 26.4649 11.9393 27.4242 12.1213ZM21.4409 13.0835C22.0388 12.4862 22.9676 12.4173 23.6432 12.8748C24.026 14.48 25.3954 15.9349 26.0114 16.5243C26.468 16.9612 27.9329 18.271 29.4116 18.631C29.6116 18.9178 29.7205 19.2596 29.7205 19.6203C29.7205 20.085 29.5418 20.5194 29.2161 20.8447C28.8914 21.17 28.4563 21.3491 27.9908 21.3491C27.5252 21.3491 27.0901 21.17 26.7639 20.8432L26.7638 20.8431L26.7632 20.8425L21.4407 15.5297C21.1163 15.2056 20.9375 14.7712 20.9375 14.3067C20.9377 13.842 21.1164 13.4076 21.4409 13.0835ZM18.357 18.2335C18.6817 17.9083 19.1163 17.7291 19.5811 17.7291C20.0464 17.7291 20.4825 17.9087 20.8093 18.2352L25.0951 22.5124C25.77 23.1883 25.77 24.2882 25.0975 24.9618C24.771 25.287 24.3343 25.4661 23.868 25.4661C23.4018 25.4661 22.9651 25.287 22.64 24.9633L22.6399 24.9631L19.3886 21.7125C19.3835 21.7074 19.378 21.7027 19.3729 21.6976L18.3557 20.6809C18.0293 20.3549 17.8497 19.9196 17.85 19.4553C17.8505 18.9925 18.0295 18.5595 18.357 18.2335ZM15.2672 23.3825C15.5921 23.058 16.0277 22.8793 16.4939 22.8793C16.9562 22.8793 17.3881 23.0554 17.7116 23.3743L20.9729 26.6341C21.2981 26.958 21.4773 27.392 21.4773 27.856C21.4773 28.32 21.2981 28.7539 20.9716 29.0791C20.6468 29.4035 20.2117 29.5822 19.7463 29.5822C19.2803 29.5822 18.8438 29.403 18.5184 29.0791L17.3361 27.8982C17.3359 27.8979 17.3355 27.8976 17.3353 27.8974L15.2673 25.8318C14.9413 25.5062 14.7618 25.0712 14.7618 24.6071C14.7618 24.1432 14.9413 23.7081 15.2672 23.3825ZM13.2117 29.5684C13.5381 29.2424 13.9743 29.0628 14.4398 29.0628C14.9053 29.0628 15.3414 29.2422 15.6676 29.568L16.8516 30.7506C17.1769 31.0745 17.3559 31.5084 17.3559 31.9725C17.3559 32.4365 17.1768 32.8704 16.8491 33.1968C16.5244 33.522 16.0893 33.7012 15.6238 33.7012C15.1582 33.7012 14.7231 33.5222 14.396 33.1945L14.2478 33.0468C14.2458 33.0449 14.2443 33.0427 14.2424 33.0409C14.2402 33.0388 14.2378 33.0369 14.2356 33.0348L13.2129 32.0161C12.538 31.3398 12.5374 30.2418 13.2117 29.5684ZM37.2626 42.9814C36.8019 42.5202 36.0546 42.5198 35.5936 42.9804L34.5436 44.0291C33.5459 45.0268 31.738 44.9012 29.9897 44.7799C28.0911 44.6479 26.1279 44.5118 24.8575 45.8161L20.5104 50.1579L9.63973 39.3031L13.4868 35.463C14.1226 35.8528 14.8563 36.0617 15.624 36.0617C16.7208 36.0617 17.7492 35.6366 18.5174 34.867C19.2907 34.0968 19.7167 33.069 19.7167 31.9726C19.7167 31.9624 19.716 31.9523 19.716 31.9421C19.7262 31.9422 19.7364 31.9428 19.7466 31.9428C20.8418 31.9428 21.8694 31.519 22.6386 30.7507C23.412 29.9805 23.8379 28.9525 23.8379 27.8563C23.8379 27.8461 23.8372 27.836 23.8372 27.8258C23.8475 27.8258 23.8579 27.8265 23.8683 27.8265C24.9632 27.8265 25.9914 27.4031 26.7657 26.6319C27.5697 25.8267 27.9673 24.7666 27.9597 23.7088C27.9702 23.7089 27.9807 23.7095 27.9913 23.7095C29.088 23.7093 30.1164 23.2843 30.8857 22.5136C31.6567 21.7435 32.0814 20.716 32.0814 19.6203C32.0814 18.854 31.873 18.1215 31.4845 17.4869L34.8564 14.1165C35.1076 13.8663 35.4175 13.7093 35.7422 13.6445C35.7773 13.6407 35.812 13.6351 35.8464 13.6283C36.3674 13.5565 36.9145 13.7172 37.313 14.114C37.9879 14.7901 37.9879 15.89 37.3154 16.5636L36.2885 17.5863C36.2851 17.5897 36.2815 17.5927 36.2781 17.5961L35.0953 18.7769C34.6341 19.2375 34.6336 19.9848 35.0943 20.4459C35.555 20.9072 36.3022 20.9075 36.7632 20.447L37.7943 19.4174C37.7945 19.4171 37.7947 19.4169 37.795 19.4166L37.9508 19.2614C38.6276 18.5908 39.724 18.5922 40.4 19.2674C40.7254 19.5913 40.9045 20.0252 40.9045 20.4893C40.9045 20.9532 40.7254 21.3872 40.3975 21.7136L39.3647 22.7485C39.3646 22.7486 39.3645 22.7488 39.3643 22.749L38.1817 23.9268C37.7198 24.3868 37.7183 25.1341 38.1783 25.5958C38.6382 26.0577 39.3854 26.0591 39.8473 25.5992L41.0353 24.416C41.36 24.0907 41.7952 23.9116 42.2606 23.9116C42.7262 23.9116 43.1614 24.0907 43.4885 24.4183C43.8138 24.7424 43.9929 25.1763 43.9929 25.6404C43.9929 26.1043 43.8138 26.5382 43.4866 26.864L41.4277 28.9238C40.9669 29.3849 40.967 30.132 41.4279 30.5928C41.6584 30.8232 41.9603 30.9383 42.2623 30.9383C42.5644 30.9383 42.8665 30.823 43.0969 30.5925L44.106 29.583C44.1117 29.5775 44.1179 29.5727 44.1237 29.567C44.4484 29.2416 44.8835 29.0626 45.349 29.0626C45.8146 29.0626 46.2497 29.2416 46.5756 29.5681C47.2498 30.2416 47.2492 31.3397 46.5756 32.0144L45.5496 33.0392C45.5493 33.0396 45.5488 33.0399 45.5484 33.0403C45.5481 33.0406 45.5477 33.0411 45.5474 33.0415L43.9189 34.6679C43.4578 35.1286 43.4573 35.8759 43.9179 36.337C44.1484 36.5677 44.4507 36.6832 44.753 36.6832C45.0547 36.6832 45.3566 36.5681 45.587 36.3381L46.3835 35.5425L50.2011 39.3556L39.3314 50.2121L35.4368 46.3222C35.7083 46.1476 35.9681 45.9423 36.212 45.6984L37.2614 44.6503C37.7228 44.1898 37.7232 43.4425 37.2626 42.9814ZM57.0764 44.443L44.4271 57.077C44.1312 57.3725 43.7351 57.5353 43.3118 57.5353C42.8885 57.5353 42.4924 57.3725 42.1964 57.0768L40.1108 54.9938C39.8153 54.6988 39.6525 54.3038 39.6525 53.8818C39.6525 53.46 39.8153 53.065 40.1108 52.7699L52.7602 40.1359C53.0562 39.8402 53.4521 39.6774 53.8755 39.6774C54.2988 39.6774 54.6949 39.8402 54.9916 40.1366L57.0765 42.2156C57.3721 42.5108 57.5348 42.9062 57.5348 43.3292C57.5347 43.7524 57.372 44.1479 57.0764 44.443Z" fill="#016938"/>
<path d="M14.224 6.62929C14.4544 6.85921 14.756 6.97405 15.0577 6.97405C15.36 6.97405 15.6625 6.85851 15.893 6.62753C16.3534 6.16616 16.3527 5.41898 15.8914 4.95855L11.5908 0.666553C11.1296 0.206124 10.3822 0.206709 9.92182 0.668194C9.46139 1.12956 9.46209 1.87675 9.92346 2.33718L14.224 6.62929Z" fill="#016938"/>
<path d="M44.7331 6.97413C45.0348 6.97413 45.3367 6.85905 45.5671 6.62901L49.8644 2.3369C50.3255 1.87636 50.326 1.12905 49.8653 0.66792C49.4048 0.206787 48.6576 0.206319 48.1963 0.666983L43.8991 4.95909C43.4379 5.41964 43.4375 6.16694 43.8981 6.62808C44.1286 6.85882 44.4309 6.97413 44.7331 6.97413Z" fill="#016938"/>
<path d="M7.36155 50.7662C6.90463 51.2309 6.91096 51.9782 7.37585 52.4351L7.37924 52.4384C7.60858 52.6639 7.90635 52.7761 8.20401 52.7761C8.50952 52.7761 8.81502 52.6579 9.04647 52.4225C9.50338 51.9577 9.4953 51.2088 9.03053 50.7519C8.56588 50.2949 7.8187 50.3014 7.36155 50.7662Z" fill="#016938"/>
<path d="M40.1491 41.2813C40.3287 41.2813 40.5108 41.2404 40.6818 41.1542C41.2637 40.8607 41.4975 40.151 41.2041 39.5691C40.9105 38.9871 40.2007 38.7532 39.6189 39.0467L39.6123 39.05C39.0303 39.3436 38.7998 40.0516 39.0933 40.6336C39.3005 41.0447 39.7172 41.2813 40.1491 41.2813Z" fill="#016938"/>
</svg>
