<svg width="50" height="50" viewBox="0 0 50 50" fill="none" xmlns="http://www.w3.org/2000/svg">
<path d="M13.2812 11.7188H30.4688C30.676 11.7188 30.8747 11.6364 31.0212 11.4899C31.1677 11.3434 31.25 11.1447 31.25 10.9375C31.25 10.7303 31.1677 10.5316 31.0212 10.3851C30.8747 10.2386 30.676 10.1562 30.4688 10.1562H13.2812C13.074 10.1562 12.8753 10.2386 12.7288 10.3851C12.5823 10.5316 12.5 10.7303 12.5 10.9375C12.5 11.1447 12.5823 11.3434 12.7288 11.4899C12.8753 11.6364 13.074 11.7188 13.2812 11.7188Z" fill="#016938"/>
<path d="M13.2812 16.4062H30.4688C30.676 16.4062 30.8747 16.3239 31.0212 16.1774C31.1677 16.0309 31.25 15.8322 31.25 15.625C31.25 15.4178 31.1677 15.2191 31.0212 15.0726C30.8747 14.9261 30.676 14.8438 30.4688 14.8438H13.2812C13.074 14.8438 12.8753 14.9261 12.7288 15.0726C12.5823 15.2191 12.5 15.4178 12.5 15.625C12.5 15.8322 12.5823 16.0309 12.7288 16.1774C12.8753 16.3239 13.074 16.4062 13.2812 16.4062Z" fill="#016938"/>
<path d="M13.2812 21.0938H30.4688C30.676 21.0938 30.8747 21.0114 31.0212 20.8649C31.1677 20.7184 31.25 20.5197 31.25 20.3125C31.25 20.1053 31.1677 19.9066 31.0212 19.7601C30.8747 19.6136 30.676 19.5312 30.4688 19.5312H13.2812C13.074 19.5312 12.8753 19.6136 12.7288 19.7601C12.5823 19.9066 12.5 20.1053 12.5 20.3125C12.5 20.5197 12.5823 20.7184 12.7288 20.8649C12.8753 21.0114 13.074 21.0938 13.2812 21.0938Z" fill="#016938"/>
<path d="M13.2812 25.7812H30.4688C30.676 25.7812 30.8747 25.6989 31.0212 25.5524C31.1677 25.4059 31.25 25.2072 31.25 25C31.25 24.7928 31.1677 24.5941 31.0212 24.4476C30.8747 24.3011 30.676 24.2188 30.4688 24.2188H13.2812C13.074 24.2188 12.8753 24.3011 12.7288 24.4476C12.5823 24.5941 12.5 24.7928 12.5 25C12.5 25.2072 12.5823 25.4059 12.7288 25.5524C12.8753 25.6989 13.074 25.7812 13.2812 25.7812Z" fill="#016938"/>
<path d="M13.2812 30.4688H19.5312C19.7385 30.4688 19.9372 30.3864 20.0837 30.2399C20.2302 30.0934 20.3125 29.8947 20.3125 29.6875C20.3125 29.4803 20.2302 29.2816 20.0837 29.1351C19.9372 28.9886 19.7385 28.9062 19.5312 28.9062H13.2812C13.074 28.9062 12.8753 28.9886 12.7288 29.1351C12.5823 29.2816 12.5 29.4803 12.5 29.6875C12.5 29.8947 12.5823 30.0934 12.7288 30.2399C12.8753 30.3864 13.074 30.4688 13.2812 30.4688Z" fill="#016938"/>
<path d="M44.1537 20.021C43.6173 19.7073 42.9783 19.6193 42.3771 19.7762C41.7758 19.9331 41.2613 20.3222 40.9466 20.858L39.0627 24.0723V4.6875C39.0627 4.4803 38.9804 4.28159 38.8339 4.13507C38.6874 3.98856 38.4887 3.90625 38.2815 3.90625H32.3551C32.3551 3.90625 30.0076 1.51562 29.9137 1.59609C29.8404 1.57385 29.7643 1.56253 29.6877 1.5625H7.03146C6.82426 1.5625 6.62555 1.64481 6.47903 1.79132C6.33252 1.93784 6.25021 2.13655 6.25021 2.34375V4.78643C5.57914 4.95942 4.98461 5.35056 4.56012 5.89835C4.13563 6.44614 3.90527 7.11949 3.90527 7.8125C3.90527 8.50551 4.13563 9.17886 4.56012 9.72665C4.98461 10.2744 5.57914 10.6656 6.25021 10.8386V12.5989C5.57914 12.7719 4.98461 13.1631 4.56012 13.7109C4.13563 14.2586 3.90527 14.932 3.90527 15.625C3.90527 16.318 4.13563 16.9914 4.56012 17.5391C4.98461 18.0869 5.57914 18.4781 6.25021 18.6511V20.4114C5.57914 20.5844 4.98461 20.9756 4.56012 21.5234C4.13563 22.0711 3.90527 22.7445 3.90527 23.4375C3.90527 24.1305 4.13563 24.8039 4.56012 25.3516C4.98461 25.8994 5.57914 26.2906 6.25021 26.4636V27.4427C5.57914 27.6157 4.98461 28.0068 4.56012 28.5546C4.13563 29.1024 3.90527 29.7757 3.90527 30.4688C3.90527 31.1618 4.13563 31.8351 4.56012 32.3829C4.98461 32.9307 5.57914 33.3218 6.25021 33.4948V38.2812C6.25021 38.4884 6.33252 38.6872 6.47903 38.8337C6.62555 38.9802 6.82426 39.0625 7.03146 39.0625H7.81271V41.4062C7.81271 41.6134 7.89502 41.8122 8.04153 41.9587C8.18805 42.1052 8.38676 42.1875 8.59396 42.1875H28.4467L27.9113 43.101C27.8634 43.1829 27.8309 43.273 27.8155 43.3667C27.8148 43.3712 27.8135 43.375 27.8128 43.3796L27.8109 43.3924V43.3953L27.1859 47.5398C27.1626 47.6942 27.1861 47.8521 27.2534 47.993C27.3207 48.1339 27.4287 48.2514 27.5634 48.3303C27.6981 48.4092 27.8534 48.446 28.0092 48.4359C28.165 48.4257 28.3142 48.3691 28.4375 48.2733L31.7606 45.6934C31.9735 45.528 32.0775 45.4269 32.061 45.2911L33.8797 42.1875H38.2815C38.4887 42.1875 38.6874 42.1052 38.8339 41.9587C38.9804 41.8122 39.0627 41.6134 39.0627 41.4062V33.3436L44.9904 23.228C45.304 22.6916 45.392 22.0527 45.2352 21.4515C45.0783 20.8503 44.6894 20.3358 44.1537 20.021ZM42.7714 21.2871C42.9209 21.2481 43.0786 21.2543 43.2246 21.3049C43.3706 21.3555 43.4983 21.4483 43.5916 21.5715C43.6848 21.6947 43.7395 21.8428 43.7486 21.997C43.7577 22.1513 43.7208 22.3048 43.6427 22.4381L43.2477 23.1119L41.9 22.3219L42.2951 21.648C42.3467 21.5594 42.4154 21.4818 42.4971 21.4199C42.5789 21.3579 42.6721 21.3128 42.7714 21.2871ZM31.0024 44.007L29.6547 43.217L39.9246 25.6923L41.2723 26.4823L31.0024 44.007ZM30.469 4.22988L33.2703 7.03125H30.469V4.22988ZM40.7147 24.3441L41.1096 23.6703L42.4577 24.4604L42.0627 25.1342L40.7147 24.3441ZM37.5002 5.46875V26.5625C37.5003 26.6132 37.5052 26.6637 37.5151 26.7135L35.9377 29.4051V7.8125C35.9378 7.71007 35.9177 7.60861 35.8786 7.51395C35.8394 7.41929 35.782 7.33328 35.7096 7.26084L35.7089 7.26006L33.9176 5.46875H37.5002ZM7.81271 3.125H28.9065V7.8125C28.9065 8.0197 28.9888 8.21841 29.1353 8.36493C29.2818 8.51144 29.4805 8.59375 29.6877 8.59375H34.3752V32.0713L31.1938 37.5H7.81271V33.4949C8.35357 33.3556 8.84718 33.0738 9.24207 32.6789C9.63697 32.2839 9.91871 31.7903 10.0579 31.2494C10.1096 31.0487 10.0794 30.8357 9.97395 30.6572C9.86853 30.4788 9.69654 30.3495 9.49582 30.2979C9.39643 30.2723 9.29297 30.2665 9.19136 30.2809C9.08975 30.2954 8.99198 30.3296 8.90362 30.3818C8.72516 30.4872 8.5959 30.6592 8.54425 30.86C8.49248 31.0608 8.40111 31.2494 8.27548 31.4144C8.14986 31.5795 7.99252 31.7178 7.81271 31.8213V26.4637C8.35357 26.3244 8.84718 26.0426 9.24207 25.6476C9.63697 25.2527 9.91871 24.759 10.0579 24.2182C10.1096 24.0174 10.0794 23.8044 9.97395 23.626C9.86853 23.4475 9.69654 23.3182 9.49582 23.2666C9.29509 23.215 9.08207 23.2452 8.90362 23.3506C8.72516 23.456 8.5959 23.628 8.54425 23.8287C8.49248 24.0296 8.40111 24.2181 8.27548 24.3832C8.14986 24.5483 7.99252 24.6866 7.81271 24.79V18.6512C8.35357 18.5119 8.84718 18.2301 9.24207 17.8351C9.63697 17.4402 9.91871 16.9465 10.0579 16.4057C10.1096 16.2049 10.0794 15.9919 9.97395 15.8135C9.86853 15.635 9.69654 15.5057 9.49582 15.4541C9.29509 15.4025 9.08207 15.4327 8.90362 15.5381C8.72516 15.6435 8.5959 15.8155 8.54425 16.0162C8.49248 16.2171 8.40111 16.4056 8.27548 16.5707C8.14986 16.7358 7.99252 16.8741 7.81271 16.9775V10.8387C8.35357 10.6994 8.84718 10.4176 9.24207 10.0226C9.63697 9.62769 9.91871 9.13404 10.0579 8.59316C10.1096 8.39244 10.0794 8.17942 9.97395 8.00097C9.86853 7.82251 9.69654 7.69325 9.49582 7.6416C9.29509 7.58996 9.08207 7.62017 8.90362 7.72558C8.72516 7.831 8.5959 8.00299 8.54425 8.20371C8.49248 8.40459 8.40111 8.59311 8.27548 8.75819C8.14986 8.92327 7.99252 9.0616 7.81271 9.16504V3.125ZM5.46896 7.8125C5.46933 7.53858 5.5417 7.26957 5.67882 7.03244C5.81594 6.7953 6.01299 6.59839 6.25021 6.46143V9.16357C6.01299 9.02661 5.81594 8.8297 5.67882 8.59256C5.5417 8.35543 5.46933 8.08642 5.46896 7.8125ZM5.46896 15.625C5.46933 15.3511 5.5417 15.0821 5.67882 14.8449C5.81594 14.6078 6.01299 14.4109 6.25021 14.2739V16.9761C6.01299 16.8391 5.81594 16.6422 5.67882 16.4051C5.5417 16.1679 5.46933 15.8989 5.46896 15.625ZM5.46896 23.4375C5.46933 23.1636 5.5417 22.8946 5.67882 22.6574C5.81594 22.4203 6.01299 22.2234 6.25021 22.0864V24.7886C6.01299 24.6516 5.81594 24.4547 5.67882 24.2176C5.5417 23.9804 5.46933 23.7114 5.46896 23.4375ZM5.46896 30.4688C5.46933 30.1948 5.5417 29.9258 5.67882 29.6887C5.81594 29.4516 6.01299 29.2546 6.25021 29.1177V31.8198C6.01299 31.6829 5.81594 31.4859 5.67882 31.2488C5.5417 31.0117 5.46933 30.7427 5.46896 30.4688ZM9.37521 40.625V39.0625H30.278L29.3623 40.625H9.37521ZM29.1859 44.7535L29.8908 45.1667L29.0217 45.8413L29.1859 44.7535ZM37.5002 40.625H34.7951L37.5002 36.0097V40.625Z" fill="#016938"/>
</svg>
