<svg width="60" height="60" viewBox="0 0 60 60" fill="none" xmlns="http://www.w3.org/2000/svg">
<g clip-path="url(#clip0)">
<path d="M46.25 60H13.75C10.305 60 7.5 57.1975 7.5 53.75V6.25C7.5 2.8025 10.305 0 13.75 0H46.25C49.695 0 52.5 2.8025 52.5 6.25V53.75C52.5 57.1975 49.695 60 46.25 60ZM13.75 2.5C11.6825 2.5 10 4.1825 10 6.25V53.75C10 55.8175 11.6825 57.5 13.75 57.5H46.25C48.3175 57.5 50 55.8175 50 53.75V6.25C50 4.1825 48.3175 2.5 46.25 2.5H13.75Z" fill="#016938"/>
<path d="M32.5 45H27.5C26.2975 45 25 44.0775 25 42.05V38.75C25 37.285 24.3675 35.945 23.31 35.165C20.3875 33.015 18.6825 29.5725 18.7525 25.96C18.865 20.0075 23.8375 15.0875 29.835 15C32.835 15.0375 35.76 16.11 37.925 18.245C40.07 20.36 41.2525 23.18 41.2525 26.1825C41.2525 29.6875 39.565 33.035 36.7375 35.135C35.6475 35.9425 35 37.3 35 38.7675V42.5C35 43.88 33.8775 45 32.5 45ZM29.9975 17.5C29.955 17.5 29.9125 17.5 29.87 17.5C25.2875 17.5675 21.34 21.465 21.2525 26.01C21.1975 28.81 22.52 31.48 24.7925 33.1525C26.4875 34.4025 27.5 36.495 27.5 38.75V42.05C27.5 42.4225 27.59 42.545 27.59 42.545L32.5 42.5V38.7675C32.5 36.515 33.525 34.4075 35.2425 33.1275C37.4725 31.4725 38.75 28.94 38.75 26.1825C38.75 23.8525 37.8325 21.665 36.1675 20.025C34.515 18.3925 32.3275 17.5 29.9975 17.5Z" fill="#016938"/>
<path d="M33.7501 40H26.2501C25.5601 40 25.0001 39.44 25.0001 38.75C25.0001 38.06 25.5601 37.5 26.2501 37.5H33.7501C34.4401 37.5 35.0001 38.06 35.0001 38.75C35.0001 39.44 34.4401 40 33.7501 40Z" fill="#016938"/>
</g>
<defs>
<clipPath id="clip0">
<rect width="60" height="60" fill="white"/>
</clipPath>
</defs>
</svg>
